<svg width="57" height="51" viewBox="0 0 57 51" fill="none" xmlns="http://www.w3.org/2000/svg">
<path fill-rule="evenodd" clip-rule="evenodd" d="M6.49983 0H5.99983V0.5V10.5H6.99983V1H55.9998V50H6.99983V41.5H5.99983V50.5V51H6.49983H56.4998H56.9998V50.5V0.5V0H56.4998H6.49983ZM4.46449 37.6476C3.92711 37.1311 3.48559 36.5239 3.1465 35.8339C1.65257 32.7938 0.82731 29.3878 0.759881 25.9841C0.692452 22.5803 1.38227 19.1443 2.75471 16.0475C3.19579 15.0523 3.84862 14.2148 4.69521 13.5584C5.48822 12.9435 6.43342 12.5151 7.42869 12.3195C8.42834 12.123 9.47113 12.1628 10.4443 12.4345C11.482 12.7241 12.4081 13.2553 13.1968 14.0133C13.442 14.2491 13.4893 14.6242 13.3102 14.9135L10.4642 19.5089C10.3353 19.7169 10.1097 19.8455 9.86498 19.8504L7.12868 19.9045C5.92963 23.7865 6.01257 27.9751 7.36436 31.8066L10.1007 31.7524C10.3454 31.7476 10.5758 31.8672 10.7129 32.0699L13.7386 36.549C13.929 36.831 13.8966 37.2077 13.6609 37.4529C12.9029 38.2416 11.9985 38.8091 10.973 39.1396C10.0114 39.4495 8.97097 39.5305 7.96433 39.3738C6.96214 39.2178 6.00071 38.8272 5.18395 38.2441C4.92798 38.0615 4.68792 37.8623 4.46449 37.6476ZM11.7592 14.677C10.6085 13.792 9.16114 13.4498 7.70688 13.7356C6.07158 14.0569 4.74749 15.1126 4.07404 16.6322C1.43552 22.586 1.56951 29.3527 4.44165 35.1974C5.17469 36.6891 6.53951 37.6917 8.18631 37.948C9.65074 38.176 11.0835 37.7767 12.1982 36.8468L9.73676 33.2031L6.87908 33.2597C6.57499 33.2657 6.2998 33.0804 6.19103 32.7965C4.49361 28.3677 4.39632 23.4545 5.91709 18.962C6.0146 18.674 6.28221 18.4779 6.58627 18.4719L9.44394 18.4154L11.7592 14.677ZM18.6566 23.15H20.1416V22.7C20.1416 21.5 21.1316 20.855 22.1066 20.855C23.0816 20.855 24.0566 21.5 24.0566 22.7C24.0566 23.6099 23.5862 24.0757 23.1089 24.5483C23.0748 24.5821 23.0406 24.616 23.0066 24.65C22.4667 25.1899 21.8459 25.6825 21.2413 26.1623C19.8299 27.2823 18.5066 28.3323 18.5066 29.75V30.5H25.4066V29.015H20.3816C20.3816 28.5255 21.0183 28.0411 21.9059 27.3658C22.5414 26.8823 23.3055 26.301 24.0566 25.55C24.6866 24.92 25.5566 24.05 25.5566 22.7C25.5566 20.6 23.9066 19.4 22.1066 19.4C20.3066 19.4 18.6566 20.75 18.6566 22.7V23.15ZM25.9995 27.65H30.9495V30.5H32.4495V27.65H33.6495V26.225H32.4495V19.55H30.4995C30.4995 19.55 28.6245 22.4 25.9995 26.225V27.65ZM27.6795 26.225C28.797 24.6326 29.9144 22.9752 30.7654 21.7131L30.9495 21.44V26.225H27.6795ZM41.5966 19.1H40.5466L33.9466 31.1H34.9966L41.5966 19.1ZM48.9396 19.55H41.7396V21.035H47.3346C46.7196 22.37 45.0546 26.015 43.6146 30.2V30.5H45.1146C46.9146 24.95 48.9396 21.035 48.9396 21.035V19.55Z" fill="#DCE4E9"/>
</svg>
