<?xml version="1.0" encoding="utf-8"?>
<!-- Generator: Adobe Illustrator 24.0.1, SVG Export Plug-In . SVG Version: 6.00 Build 0)  -->
<svg version="1.1" xmlns="http://www.w3.org/2000/svg" xmlns:xlink="http://www.w3.org/1999/xlink" x="0px" y="0px"
	 viewBox="0 0 1919 1372" style="enable-background:new 0 0 1919 1372;" xml:space="preserve">
<style type="text/css">
	.st0{fill-rule:evenodd;clip-rule:evenodd;fill:#07071C;}
	.st1{opacity:0.7;}
	.st2{fill:none;stroke:url(#SVGID_1_);stroke-width:5;}
	.st3{fill:none;stroke:url(#SVGID_2_);stroke-width:3;}
	.st4{fill:none;stroke:url(#SVGID_3_);}
	.st5{fill:none;stroke:url(#SVGID_4_);stroke-width:5;}
	.st6{fill:none;stroke:url(#SVGID_5_);stroke-width:3;}
	.st7{fill:none;stroke:url(#SVGID_6_);}
	.st8{fill:none;stroke:url(#SVGID_7_);stroke-width:5;}
	.st9{fill:none;stroke:url(#SVGID_8_);stroke-width:3;}
	.st10{fill:none;stroke:url(#SVGID_9_);}
	.st11{opacity:0.85;}
	.st12{fill:none;stroke:url(#SVGID_10_);stroke-width:3;}
	.st13{fill:none;stroke:url(#SVGID_11_);stroke-width:2;}
	.st14{fill:none;stroke:url(#SVGID_12_);}
	.st15{opacity:0.85;fill:url(#SVGID_13_);enable-background:new    ;}
	.st16{fill:none;stroke:url(#SVGID_14_);stroke-width:3;}
	.st17{fill:none;stroke:url(#SVGID_15_);stroke-width:2;}
	.st18{fill:none;stroke:url(#SVGID_16_);}
	.st19{opacity:0.85;fill:url(#SVGID_17_);enable-background:new    ;}
	.st20{fill:none;stroke:url(#SVGID_18_);stroke-width:3;}
	.st21{fill:none;stroke:url(#SVGID_19_);stroke-width:2;}
	.st22{fill:none;stroke:url(#SVGID_20_);}
	.st23{opacity:0.85;fill:url(#SVGID_21_);enable-background:new    ;}
	.st24{fill:none;stroke:url(#SVGID_22_);stroke-width:3;}
	.st25{fill:none;stroke:url(#SVGID_23_);stroke-width:2;}
	.st26{fill:none;stroke:url(#SVGID_24_);}
	.st27{opacity:0.85;fill:url(#SVGID_25_);enable-background:new    ;}
	.st28{fill:none;stroke:url(#SVGID_26_);stroke-width:3;}
	.st29{fill:none;stroke:url(#SVGID_27_);stroke-width:2;}
	.st30{fill:none;stroke:url(#SVGID_28_);}
	.st31{opacity:0.8;fill:url(#SVGID_29_);fill-opacity:0.8;enable-background:new    ;}
	.st32{opacity:0.6;}
	.st33{fill:none;stroke:url(#SVGID_30_);stroke-width:3;}
	.st34{opacity:0.8;}
	.st35{fill:none;stroke:url(#SVGID_31_);}
	.st36{fill:none;stroke:url(#SVGID_32_);}
	.st37{fill:none;stroke:url(#SVGID_33_);stroke-width:0.5;}
	.st38{fill:none;stroke:url(#SVGID_34_);stroke-width:3;}
	.st39{fill:none;stroke:url(#SVGID_35_);stroke-width:3;}
	.st40{fill:none;stroke:url(#SVGID_36_);}
	.st41{fill:none;stroke:url(#SVGID_37_);stroke-width:0.5;}
	.st42{fill:none;stroke:url(#SVGID_38_);stroke-width:3;}
	.st43{fill:none;stroke:url(#SVGID_39_);stroke-width:3;}
	.st44{fill:none;stroke:url(#SVGID_40_);}
	.st45{fill:none;stroke:url(#SVGID_41_);stroke-width:0.5;}
	.st46{fill:none;stroke:url(#SVGID_42_);stroke-width:3;stroke-opacity:0.6;}
	.st47{fill:none;stroke:url(#SVGID_43_);}
	.st48{fill:none;stroke:url(#SVGID_44_);}
	.st49{fill:none;stroke:url(#SVGID_45_);stroke-width:0.5;}
	.st50{fill:none;stroke:url(#SVGID_46_);stroke-width:3;}
	.st51{fill:none;stroke:url(#SVGID_47_);stroke-width:3;}
	.st52{fill:none;stroke:url(#SVGID_48_);}
	.st53{fill:none;stroke:url(#SVGID_49_);stroke-width:0.5;}
	.st54{fill:none;stroke:url(#SVGID_50_);stroke-width:3;}
	.st55{fill:none;stroke:url(#SVGID_51_);stroke-width:3;}
	.st56{fill:none;stroke:url(#SVGID_52_);}
	.st57{fill:none;stroke:url(#SVGID_53_);stroke-width:0.5;}
	.st58{fill:none;stroke:url(#SVGID_54_);stroke-width:3;}
	.st59{fill:none;stroke:url(#SVGID_55_);stroke-width:3;}
	.st60{fill:none;stroke:url(#SVGID_56_);}
	.st61{fill:none;stroke:url(#SVGID_57_);stroke-width:0.5;}
	.st62{fill:none;stroke:url(#SVGID_58_);stroke-width:3;}
	.st63{fill:none;stroke:url(#SVGID_59_);stroke-width:3;}
	.st64{fill:none;stroke:url(#SVGID_60_);}
	.st65{fill:none;stroke:url(#SVGID_61_);stroke-width:0.5;}
	.st66{fill:none;stroke:url(#SVGID_62_);stroke-width:3;}
	.st67{fill:none;stroke:url(#SVGID_63_);stroke-width:3;}
	.st68{fill:none;stroke:url(#SVGID_64_);}
	.st69{fill:none;stroke:url(#SVGID_65_);stroke-width:0.5;}
	.st70{fill-rule:evenodd;clip-rule:evenodd;fill:url(#SVGID_66_);}
</style>
<g id="Слой_2">
	<rect y="-27.6" class="st0" width="1919" height="1437.9"/>
</g>
<g id="Слой_1">
	<g class="st1">
		
			<linearGradient id="SVGID_1_" gradientUnits="userSpaceOnUse" x1="1197.4358" y1="676.9429" x2="1197.8251" y2="567.7049" gradientTransform="matrix(1 0 0 -1 0 1374)">
			<stop  offset="0.1437" style="stop-color:#3093EF;stop-opacity:0"/>
			<stop  offset="0.6285" style="stop-color:#3093EF"/>
			<stop  offset="0.9458" style="stop-color:#3093EF;stop-opacity:0"/>
		</linearGradient>
		<path class="st2" d="M1199.5,697.1v68.3 M1199.5,765.4L1133,807 M1199.5,765.4l63.1,41.6"/>
	</g>
	<g>
		
			<linearGradient id="SVGID_2_" gradientUnits="userSpaceOnUse" x1="1197.4226" y1="676.9393" x2="1197.8127" y2="567.4529" gradientTransform="matrix(1 0 0 -1 0 1374)">
			<stop  offset="0.1437" style="stop-color:#3093EF;stop-opacity:0"/>
			<stop  offset="0.6285" style="stop-color:#3093EF"/>
			<stop  offset="0.9458" style="stop-color:#3093EF;stop-opacity:0"/>
		</linearGradient>
		<path class="st3" d="M1199.5,697.1v68.3 M1199.5,765.4L1133,807 M1199.5,765.4l63.1,41.6"/>
	</g>
	<g>
		
			<linearGradient id="SVGID_3_" gradientUnits="userSpaceOnUse" x1="1197.4093" y1="676.9356" x2="1197.8004" y2="567.1959" gradientTransform="matrix(1 0 0 -1 0 1374)">
			<stop  offset="0.1437" style="stop-color:#3093EF;stop-opacity:0"/>
			<stop  offset="0.6285" style="stop-color:#3093EF"/>
			<stop  offset="0.9458" style="stop-color:#3093EF;stop-opacity:0"/>
		</linearGradient>
		<path class="st4" d="M1199.5,697.1v68.3 M1199.5,765.4L1133,807 M1199.5,765.4l63.1,41.6"/>
	</g>
	<g class="st1">
		
			<linearGradient id="SVGID_4_" gradientUnits="userSpaceOnUse" x1="839.6111" y1="909.3746" x2="839.9991" y2="800.1365" gradientTransform="matrix(1 0 0 -1 0 1374)">
			<stop  offset="0.1437" style="stop-color:#3093EF;stop-opacity:0"/>
			<stop  offset="0.6285" style="stop-color:#3093EF"/>
			<stop  offset="0.9458" style="stop-color:#3093EF;stop-opacity:0"/>
		</linearGradient>
		<path class="st5" d="M841.7,464.6v68.3 M841.7,532.9l-66.5,41.6 M841.7,532.9l63.1,41.6"/>
	</g>
	<g>
		
			<linearGradient id="SVGID_5_" gradientUnits="userSpaceOnUse" x1="839.5979" y1="910.6342" x2="839.9868" y2="801.1477" gradientTransform="matrix(1 0 0 -1 0 1374)">
			<stop  offset="0.1437" style="stop-color:#3093EF;stop-opacity:0"/>
			<stop  offset="0.6285" style="stop-color:#3093EF"/>
			<stop  offset="0.9458" style="stop-color:#3093EF;stop-opacity:0"/>
		</linearGradient>
		<path class="st6" d="M841.7,463.4v68.3 M841.7,531.7l-66.5,41.6 M841.7,531.7l63.1,41.6"/>
	</g>
	<g>
		
			<linearGradient id="SVGID_6_" gradientUnits="userSpaceOnUse" x1="840.3502" y1="908.2867" x2="840.74" y2="798.5468" gradientTransform="matrix(1 0 0 -1 0 1374)">
			<stop  offset="0.1437" style="stop-color:#3093EF;stop-opacity:0"/>
			<stop  offset="0.6285" style="stop-color:#3093EF"/>
			<stop  offset="0.9458" style="stop-color:#3093EF;stop-opacity:0"/>
		</linearGradient>
		<path class="st7" d="M842.5,465.7V534 M842.5,534l-66.5,41.6 M842.5,534l63.1,41.6"/>
	</g>
	<g class="st1">
		
			<linearGradient id="SVGID_7_" gradientUnits="userSpaceOnUse" x1="361.0328" y1="436.9318" x2="361.4208" y2="327.6938" gradientTransform="matrix(1 0 0 -1 0 1374)">
			<stop  offset="0.1437" style="stop-color:#3093EF;stop-opacity:0"/>
			<stop  offset="0.6285" style="stop-color:#3093EF"/>
			<stop  offset="0.9458" style="stop-color:#3093EF;stop-opacity:0"/>
		</linearGradient>
		<path class="st8" d="M363.1,937.1v68.3 M363.1,1005.4l-66.5,41.6 M363.1,1005.4l63.1,41.6"/>
	</g>
	<g>
		
			<linearGradient id="SVGID_8_" gradientUnits="userSpaceOnUse" x1="361.0196" y1="436.9282" x2="361.4084" y2="327.4417" gradientTransform="matrix(1 0 0 -1 0 1374)">
			<stop  offset="0.1437" style="stop-color:#3093EF;stop-opacity:0"/>
			<stop  offset="0.6285" style="stop-color:#3093EF"/>
			<stop  offset="0.9458" style="stop-color:#3093EF;stop-opacity:0"/>
		</linearGradient>
		<path class="st9" d="M363.1,937.1v68.3 M363.1,1005.4l-66.5,41.6 M363.1,1005.4l63.1,41.6"/>
	</g>
	<g>
		
			<linearGradient id="SVGID_9_" gradientUnits="userSpaceOnUse" x1="361.0064" y1="436.9246" x2="361.3961" y2="327.1848" gradientTransform="matrix(1 0 0 -1 0 1374)">
			<stop  offset="0.1437" style="stop-color:#3093EF;stop-opacity:0"/>
			<stop  offset="0.6285" style="stop-color:#3093EF"/>
			<stop  offset="0.9458" style="stop-color:#3093EF;stop-opacity:0"/>
		</linearGradient>
		<path class="st10" d="M363.1,937.1v68.3 M363.1,1005.4l-66.5,41.6 M363.1,1005.4l63.1,41.6"/>
	</g>
	<g class="st11">
		<g class="st1">
			
				<linearGradient id="SVGID_10_" gradientUnits="userSpaceOnUse" x1="241.375" y1="1141.8026" x2="241.7639" y2="1032.3162" gradientTransform="matrix(1 0 0 -1 0 1374)">
				<stop  offset="0.1437" style="stop-color:#3093EF;stop-opacity:0"/>
				<stop  offset="0.6285" style="stop-color:#3093EF"/>
				<stop  offset="0.9458" style="stop-color:#3093EF;stop-opacity:0"/>
			</linearGradient>
			<path class="st12" d="M243.5,232.2v68.3 M243.5,300.5l-66.5,41.6 M243.5,300.5l63.1,41.6"/>
		</g>
		<g>
			
				<linearGradient id="SVGID_11_" gradientUnits="userSpaceOnUse" x1="241.3684" y1="1141.8009" x2="241.7577" y2="1032.1884" gradientTransform="matrix(1 0 0 -1 0 1374)">
				<stop  offset="0.1437" style="stop-color:#3093EF;stop-opacity:0"/>
				<stop  offset="0.6285" style="stop-color:#3093EF"/>
				<stop  offset="0.9458" style="stop-color:#3093EF;stop-opacity:0"/>
			</linearGradient>
			<path class="st13" d="M243.5,232.2v68.3 M243.5,300.5l-66.5,41.6 M243.5,300.5l63.1,41.6"/>
		</g>
		
			<linearGradient id="SVGID_12_" gradientUnits="userSpaceOnUse" x1="241.3618" y1="1141.7991" x2="241.7515" y2="1032.0592" gradientTransform="matrix(1 0 0 -1 0 1374)">
			<stop  offset="0.1437" style="stop-color:#3093EF;stop-opacity:0"/>
			<stop  offset="0.6285" style="stop-color:#3093EF"/>
			<stop  offset="0.9458" style="stop-color:#3093EF;stop-opacity:0"/>
		</linearGradient>
		<path class="st14" d="M243.5,232.2v68.3 M243.5,300.5l-66.5,41.6 M243.5,300.5l63.1,41.6"/>
		
			<radialGradient id="SVGID_13_" cx="456.2927" cy="1864.3315" r="0.9831" gradientTransform="matrix(6.209955e-16 11.5642 10.1416 -7.081034e-16 -18663.9453 -4976.2539)" gradientUnits="userSpaceOnUse">
			<stop  offset="0.2115" style="stop-color:#FFFFFF"/>
			<stop  offset="0.6281" style="stop-color:#236BF6;stop-opacity:0.56"/>
		</radialGradient>
		<ellipse class="st15" cx="243.4" cy="300.4" rx="10" ry="11.4"/>
	</g>
	<g class="st1">
		
			<linearGradient id="SVGID_14_" gradientUnits="userSpaceOnUse" x1="722.91" y1="220.9226" x2="722.5211" y2="330.4091" gradientTransform="matrix(1 0 0 -1 0 1374)">
			<stop  offset="0.1437" style="stop-color:#3093EF;stop-opacity:0"/>
			<stop  offset="0.6285" style="stop-color:#3093EF"/>
			<stop  offset="0.9458" style="stop-color:#3093EF;stop-opacity:0"/>
		</linearGradient>
		<path class="st16" d="M720.8,1153.1v-68.3 M720.8,1084.8l66.5-41.6 M720.8,1084.8l-63.1-41.6"/>
	</g>
	<g>
		
			<linearGradient id="SVGID_15_" gradientUnits="userSpaceOnUse" x1="722.9166" y1="220.9244" x2="722.5273" y2="330.537" gradientTransform="matrix(1 0 0 -1 0 1374)">
			<stop  offset="0.1437" style="stop-color:#3093EF;stop-opacity:0"/>
			<stop  offset="0.6285" style="stop-color:#3093EF"/>
			<stop  offset="0.9458" style="stop-color:#3093EF;stop-opacity:0"/>
		</linearGradient>
		<path class="st17" d="M720.8,1153.1v-68.3 M720.8,1084.8l66.5-41.6 M720.8,1084.8l-63.1-41.6"/>
	</g>
	
		<linearGradient id="SVGID_16_" gradientUnits="userSpaceOnUse" x1="722.9232" y1="220.9262" x2="722.5334" y2="330.6661" gradientTransform="matrix(1 0 0 -1 0 1374)">
		<stop  offset="0.1437" style="stop-color:#3093EF;stop-opacity:0"/>
		<stop  offset="0.6285" style="stop-color:#3093EF"/>
		<stop  offset="0.9458" style="stop-color:#3093EF;stop-opacity:0"/>
	</linearGradient>
	<path class="st18" d="M720.8,1153.1v-68.3 M720.8,1084.8l66.5-41.6 M720.8,1084.8l-63.1-41.6"/>
	
		<radialGradient id="SVGID_17_" cx="339.8724" cy="1946.4789" r="0.9831" gradientTransform="matrix(-6.209955e-16 -11.5642 -10.1416 7.081034e-16 20462.4473 5015.2202)" gradientUnits="userSpaceOnUse">
		<stop  offset="0.2115" style="stop-color:#FFFFFF"/>
		<stop  offset="0.6281" style="stop-color:#236BF6;stop-opacity:0.56"/>
	</radialGradient>
	<ellipse class="st19" cx="722" cy="1084.9" rx="10" ry="11.4"/>
	<g class="st1">
		
			<linearGradient id="SVGID_18_" gradientUnits="userSpaceOnUse" x1="1799.7126" y1="-11.5091" x2="1799.3225" y2="97.9773" gradientTransform="matrix(1 0 0 -1 0 1374)">
			<stop  offset="0.1437" style="stop-color:#3093EF;stop-opacity:0"/>
			<stop  offset="0.6285" style="stop-color:#3093EF"/>
			<stop  offset="0.9458" style="stop-color:#3093EF;stop-opacity:0"/>
		</linearGradient>
		<path class="st20" d="M1797.6,1385.5v-68.3 M1797.6,1317.2l66.5-41.6 M1797.6,1317.2l-63.1-41.6"/>
	</g>
	<g>
		
			<linearGradient id="SVGID_19_" gradientUnits="userSpaceOnUse" x1="1799.7192" y1="-11.5073" x2="1799.3286" y2="98.1051" gradientTransform="matrix(1 0 0 -1 0 1374)">
			<stop  offset="0.1437" style="stop-color:#3093EF;stop-opacity:0"/>
			<stop  offset="0.6285" style="stop-color:#3093EF"/>
			<stop  offset="0.9458" style="stop-color:#3093EF;stop-opacity:0"/>
		</linearGradient>
		<path class="st21" d="M1797.6,1385.5v-68.3 M1797.6,1317.2l66.5-41.6 M1797.6,1317.2l-63.1-41.6"/>
	</g>
	<g>
		
			<linearGradient id="SVGID_20_" gradientUnits="userSpaceOnUse" x1="1799.7258" y1="-11.5055" x2="1799.3348" y2="98.2342" gradientTransform="matrix(1 0 0 -1 0 1374)">
			<stop  offset="0.1437" style="stop-color:#3093EF;stop-opacity:0"/>
			<stop  offset="0.6285" style="stop-color:#3093EF"/>
			<stop  offset="0.9458" style="stop-color:#3093EF;stop-opacity:0"/>
		</linearGradient>
		<path class="st22" d="M1797.6,1385.5v-68.3 M1797.6,1317.2l66.5-41.6 M1797.6,1317.2l-63.1-41.6"/>
	</g>
	
		<radialGradient id="SVGID_21_" cx="340.2176" cy="1948.3007" r="0.9831" gradientTransform="matrix(-6.209955e-16 -11.5642 -10.1416 7.081034e-16 21556.6152 5251.644)" gradientUnits="userSpaceOnUse">
		<stop  offset="0.2115" style="stop-color:#FFFFFF"/>
		<stop  offset="0.6281" style="stop-color:#236BF6;stop-opacity:0.56"/>
	</radialGradient>
	<ellipse class="st23" cx="1797.7" cy="1317.3" rx="10" ry="11.4"/>
	<g class="st1">
		
			<linearGradient id="SVGID_22_" gradientUnits="userSpaceOnUse" x1="1441.8867" y1="227.2387" x2="1441.4966" y2="336.7251" gradientTransform="matrix(1 0 0 -1 0 1374)">
			<stop  offset="0.1437" style="stop-color:#3093EF;stop-opacity:0"/>
			<stop  offset="0.6285" style="stop-color:#3093EF"/>
			<stop  offset="0.9458" style="stop-color:#3093EF;stop-opacity:0"/>
		</linearGradient>
		<path class="st24" d="M1439.8,1146.8v-68.3 M1439.8,1078.5l66.5-41.6 M1439.8,1078.5l-63.1-41.6"/>
	</g>
	<g>
		
			<linearGradient id="SVGID_23_" gradientUnits="userSpaceOnUse" x1="1441.8933" y1="227.2405" x2="1441.5027" y2="336.8529" gradientTransform="matrix(1 0 0 -1 0 1374)">
			<stop  offset="0.1437" style="stop-color:#3093EF;stop-opacity:0"/>
			<stop  offset="0.6285" style="stop-color:#3093EF"/>
			<stop  offset="0.9458" style="stop-color:#3093EF;stop-opacity:0"/>
		</linearGradient>
		<path class="st25" d="M1439.8,1146.8v-68.3 M1439.8,1078.5l66.5-41.6 M1439.8,1078.5l-63.1-41.6"/>
	</g>
	<g>
		
			<linearGradient id="SVGID_24_" gradientUnits="userSpaceOnUse" x1="1441.8999" y1="227.2423" x2="1441.5088" y2="336.9821" gradientTransform="matrix(1 0 0 -1 0 1374)">
			<stop  offset="0.1437" style="stop-color:#3093EF;stop-opacity:0"/>
			<stop  offset="0.6285" style="stop-color:#3093EF"/>
			<stop  offset="0.9458" style="stop-color:#3093EF;stop-opacity:0"/>
		</linearGradient>
		<path class="st26" d="M1439.8,1146.8v-68.3 M1439.8,1078.5l66.5-41.6 M1439.8,1078.5l-63.1-41.6"/>
	</g>
	
		<radialGradient id="SVGID_25_" cx="345.575" cy="1943.4252" r="0.9831" gradientTransform="matrix(-6.899950e-16 -12.8491 -11.2685 7.867816e-16 23339.2891 5517.6206)" gradientUnits="userSpaceOnUse">
		<stop  offset="0.2115" style="stop-color:#FFFFFF"/>
		<stop  offset="0.6281" style="stop-color:#236BF6;stop-opacity:0.56"/>
	</radialGradient>
	<ellipse class="st27" cx="1439.9" cy="1077.3" rx="11.1" ry="12.6"/>
	<g class="st1">
		
			<linearGradient id="SVGID_26_" gradientUnits="userSpaceOnUse" x1="1438.9274" y1="1145.5923" x2="1439.3176" y2="1036.106" gradientTransform="matrix(1 0 0 -1 0 1374)">
			<stop  offset="0.1437" style="stop-color:#3093EF;stop-opacity:0"/>
			<stop  offset="0.6285" style="stop-color:#3093EF"/>
			<stop  offset="0.9458" style="stop-color:#3093EF;stop-opacity:0"/>
		</linearGradient>
		<path class="st28" d="M1441,228.4v68.3 M1441,296.7l-66.5,41.6 M1441,296.7l63.1,41.6"/>
	</g>
	<g class="st11">
		
			<linearGradient id="SVGID_27_" gradientUnits="userSpaceOnUse" x1="1438.9208" y1="1145.5906" x2="1439.3114" y2="1035.978" gradientTransform="matrix(1 0 0 -1 0 1374)">
			<stop  offset="0.1437" style="stop-color:#3093EF;stop-opacity:0"/>
			<stop  offset="0.6285" style="stop-color:#3093EF"/>
			<stop  offset="0.9458" style="stop-color:#3093EF;stop-opacity:0"/>
		</linearGradient>
		<path class="st29" d="M1441,228.4v68.3 M1441,296.7l-66.5,41.6 M1441,296.7l63.1,41.6"/>
	</g>
	<g>
		
			<linearGradient id="SVGID_28_" gradientUnits="userSpaceOnUse" x1="1438.9142" y1="1145.5887" x2="1439.3053" y2="1035.849" gradientTransform="matrix(1 0 0 -1 0 1374)">
			<stop  offset="0.1437" style="stop-color:#3093EF;stop-opacity:0"/>
			<stop  offset="0.6285" style="stop-color:#3093EF"/>
			<stop  offset="0.9458" style="stop-color:#3093EF;stop-opacity:0"/>
		</linearGradient>
		<path class="st30" d="M1441,228.4v68.3 M1441,296.7l-66.5,41.6 M1441,296.7l63.1,41.6"/>
	</g>
	
		<radialGradient id="SVGID_29_" cx="444.6971" cy="1870.0664" r="0.9831" gradientTransform="matrix(7.589945e-16 14.134 12.3953 -8.654598e-16 -21739.1133 -5987.4795)" gradientUnits="userSpaceOnUse">
		<stop  offset="0.2115" style="stop-color:#FFFFFF"/>
		<stop  offset="0.6281" style="stop-color:#236BF6;stop-opacity:0.56"/>
	</radialGradient>
	<ellipse class="st31" cx="1441" cy="297.9" rx="12.2" ry="13.9"/>
	<g class="st32">
		
			<linearGradient id="SVGID_30_" gradientUnits="userSpaceOnUse" x1="1678.0345" y1="1234.6511" x2="1678.0345" y2="1079.9072" gradientTransform="matrix(1 0 0 -1 0 1374)">
			<stop  offset="0" style="stop-color:#3093EF;stop-opacity:0"/>
			<stop  offset="0.524" style="stop-color:#3093EF"/>
			<stop  offset="1" style="stop-color:#3093EF;stop-opacity:0"/>
		</linearGradient>
		<path class="st33" d="M1678,139.3v154.7"/>
	</g>
	<g class="st34">
		
			<linearGradient id="SVGID_31_" gradientUnits="userSpaceOnUse" x1="1678.0345" y1="1234.6511" x2="1678.0345" y2="1079.9072" gradientTransform="matrix(1 0 0 -1 0 1374)">
			<stop  offset="0" style="stop-color:#3093EF;stop-opacity:0"/>
			<stop  offset="0.524" style="stop-color:#3093EF"/>
			<stop  offset="1" style="stop-color:#3093EF;stop-opacity:0"/>
		</linearGradient>
		<path class="st35" d="M1678,139.3v154.7"/>
	</g>
	
		<linearGradient id="SVGID_32_" gradientUnits="userSpaceOnUse" x1="1678.0345" y1="1234.6511" x2="1678.0345" y2="1079.9072" gradientTransform="matrix(1 0 0 -1 0 1374)">
		<stop  offset="0.1281" style="stop-color:#3093EF;stop-opacity:0"/>
		<stop  offset="0.524" style="stop-color:#3093EF"/>
		<stop  offset="0.9094" style="stop-color:#3093EF;stop-opacity:0"/>
	</linearGradient>
	<path class="st36" d="M1678,139.3v154.7"/>
	
		<linearGradient id="SVGID_33_" gradientUnits="userSpaceOnUse" x1="1678.0345" y1="1234.6511" x2="1678.0345" y2="1079.9072" gradientTransform="matrix(1 0 0 -1 0 1374)">
		<stop  offset="0.1281" style="stop-color:#3093EF;stop-opacity:0"/>
		<stop  offset="0.524" style="stop-color:#FFFFFF"/>
		<stop  offset="0.9094" style="stop-color:#3093EF;stop-opacity:0"/>
	</linearGradient>
	<path class="st37" d="M1678,139.3v154.7"/>
	<g class="st32">
		
			<linearGradient id="SVGID_34_" gradientUnits="userSpaceOnUse" x1="1798.7869" y1="999.6931" x2="1798.7869" y2="844.9491" gradientTransform="matrix(1 0 0 -1 0 1374)">
			<stop  offset="0" style="stop-color:#3093EF;stop-opacity:0"/>
			<stop  offset="0.524" style="stop-color:#3093EF"/>
			<stop  offset="1" style="stop-color:#3093EF;stop-opacity:0"/>
		</linearGradient>
		<path class="st38" d="M1798.8,374.3v154.7"/>
	</g>
	<g class="st34">
		
			<linearGradient id="SVGID_35_" gradientUnits="userSpaceOnUse" x1="1798.7869" y1="999.6931" x2="1798.7869" y2="844.9491" gradientTransform="matrix(1 0 0 -1 0 1374)">
			<stop  offset="0" style="stop-color:#3093EF;stop-opacity:0"/>
			<stop  offset="0.524" style="stop-color:#3093EF"/>
			<stop  offset="1" style="stop-color:#3093EF;stop-opacity:0"/>
		</linearGradient>
		<path class="st39" d="M1798.8,374.3v154.7"/>
	</g>
	
		<linearGradient id="SVGID_36_" gradientUnits="userSpaceOnUse" x1="1798.7869" y1="999.6931" x2="1798.7869" y2="844.9491" gradientTransform="matrix(1 0 0 -1 0 1374)">
		<stop  offset="0.1281" style="stop-color:#3093EF;stop-opacity:0"/>
		<stop  offset="0.524" style="stop-color:#3093EF"/>
		<stop  offset="0.9094" style="stop-color:#3093EF;stop-opacity:0"/>
	</linearGradient>
	<path class="st40" d="M1798.8,374.3v154.7"/>
	
		<linearGradient id="SVGID_37_" gradientUnits="userSpaceOnUse" x1="1798.7869" y1="999.6931" x2="1798.7869" y2="844.9491" gradientTransform="matrix(1 0 0 -1 0 1374)">
		<stop  offset="0.1281" style="stop-color:#3093EF;stop-opacity:0"/>
		<stop  offset="0.524" style="stop-color:#FFFFFF"/>
		<stop  offset="0.9094" style="stop-color:#3093EF;stop-opacity:0"/>
	</linearGradient>
	<path class="st41" d="M1798.8,374.3v154.7"/>
	<g class="st32">
		
			<linearGradient id="SVGID_38_" gradientUnits="userSpaceOnUse" x1="482.6964" y1="758.4188" x2="482.6964" y2="603.6749" gradientTransform="matrix(1 0 0 -1 0 1374)">
			<stop  offset="0" style="stop-color:#3093EF;stop-opacity:0"/>
			<stop  offset="0.524" style="stop-color:#3093EF"/>
			<stop  offset="1" style="stop-color:#3093EF;stop-opacity:0"/>
		</linearGradient>
		<path class="st42" d="M482.7,615.6v154.7"/>
	</g>
	<g class="st34">
		
			<linearGradient id="SVGID_39_" gradientUnits="userSpaceOnUse" x1="482.6964" y1="758.4188" x2="482.6964" y2="603.6749" gradientTransform="matrix(1 0 0 -1 0 1374)">
			<stop  offset="0" style="stop-color:#3093EF;stop-opacity:0"/>
			<stop  offset="0.524" style="stop-color:#3093EF"/>
			<stop  offset="1" style="stop-color:#3093EF;stop-opacity:0"/>
		</linearGradient>
		<path class="st43" d="M482.7,615.6v154.7"/>
	</g>
	
		<linearGradient id="SVGID_40_" gradientUnits="userSpaceOnUse" x1="482.6964" y1="758.4188" x2="482.6964" y2="603.6749" gradientTransform="matrix(1 0 0 -1 0 1374)">
		<stop  offset="0.1281" style="stop-color:#3093EF;stop-opacity:0"/>
		<stop  offset="0.524" style="stop-color:#3093EF"/>
		<stop  offset="0.9094" style="stop-color:#3093EF;stop-opacity:0"/>
	</linearGradient>
	<path class="st44" d="M482.7,615.6v154.7"/>
	
		<linearGradient id="SVGID_41_" gradientUnits="userSpaceOnUse" x1="482.6964" y1="758.4188" x2="482.6964" y2="603.6749" gradientTransform="matrix(1 0 0 -1 0 1374)">
		<stop  offset="0.1281" style="stop-color:#3093EF;stop-opacity:0"/>
		<stop  offset="0.524" style="stop-color:#FFFFFF"/>
		<stop  offset="0.9094" style="stop-color:#3093EF;stop-opacity:0"/>
	</linearGradient>
	<path class="st45" d="M482.7,615.6v154.7"/>
	<g class="st32">
		
			<linearGradient id="SVGID_42_" gradientUnits="userSpaceOnUse" x1="1679.1423" y1="292.2922" x2="1679.1423" y2="137.5482" gradientTransform="matrix(1 0 0 -1 0 1374)">
			<stop  offset="0" style="stop-color:#3093EF;stop-opacity:0"/>
			<stop  offset="0.524" style="stop-color:#3093EF"/>
			<stop  offset="1" style="stop-color:#3093EF;stop-opacity:0"/>
		</linearGradient>
		<path class="st46" d="M1679.1,1081.7v154.7"/>
	</g>
	<g class="st34">
		
			<linearGradient id="SVGID_43_" gradientUnits="userSpaceOnUse" x1="1679.1423" y1="292.2922" x2="1679.1423" y2="137.5482" gradientTransform="matrix(1 0 0 -1 0 1374)">
			<stop  offset="0" style="stop-color:#3093EF;stop-opacity:0"/>
			<stop  offset="0.524" style="stop-color:#3093EF"/>
			<stop  offset="1" style="stop-color:#3093EF;stop-opacity:0"/>
		</linearGradient>
		<path class="st47" d="M1679.1,1081.7v154.7"/>
	</g>
	
		<linearGradient id="SVGID_44_" gradientUnits="userSpaceOnUse" x1="1679.1423" y1="292.2922" x2="1679.1423" y2="137.5482" gradientTransform="matrix(1 0 0 -1 0 1374)">
		<stop  offset="0.1281" style="stop-color:#3093EF;stop-opacity:0"/>
		<stop  offset="0.524" style="stop-color:#3093EF"/>
		<stop  offset="0.9094" style="stop-color:#3093EF;stop-opacity:0"/>
	</linearGradient>
	<path class="st48" d="M1679.1,1081.7v154.7"/>
	
		<linearGradient id="SVGID_45_" gradientUnits="userSpaceOnUse" x1="1679.1423" y1="292.2922" x2="1679.1423" y2="137.5482" gradientTransform="matrix(1 0 0 -1 0 1374)">
		<stop  offset="0.1281" style="stop-color:#3093EF;stop-opacity:0"/>
		<stop  offset="0.524" style="stop-color:#FFFFFF"/>
		<stop  offset="0.9094" style="stop-color:#3093EF;stop-opacity:0"/>
	</linearGradient>
	<path class="st49" d="M1679.1,1081.7v154.7"/>
	<g class="st32">
		
			<linearGradient id="SVGID_46_" gradientUnits="userSpaceOnUse" x1="841.6302" y1="37.7542" x2="841.6302" y2="-83.5145" gradientTransform="matrix(1 0 0 -1 0 1374)">
			<stop  offset="0" style="stop-color:#3093EF;stop-opacity:0"/>
			<stop  offset="0.524" style="stop-color:#3093EF"/>
			<stop  offset="1" style="stop-color:#3093EF;stop-opacity:0"/>
		</linearGradient>
		<path class="st50" d="M841.6,1336.2v121.3"/>
	</g>
	<g class="st34">
		
			<linearGradient id="SVGID_47_" gradientUnits="userSpaceOnUse" x1="841.6302" y1="37.7542" x2="841.6302" y2="-83.5145" gradientTransform="matrix(1 0 0 -1 0 1374)">
			<stop  offset="0" style="stop-color:#3093EF;stop-opacity:0"/>
			<stop  offset="0.524" style="stop-color:#3093EF"/>
			<stop  offset="1" style="stop-color:#3093EF;stop-opacity:0"/>
		</linearGradient>
		<path class="st51" d="M841.6,1336.2v121.3"/>
	</g>
	
		<linearGradient id="SVGID_48_" gradientUnits="userSpaceOnUse" x1="841.6302" y1="37.7542" x2="841.6302" y2="-83.5145" gradientTransform="matrix(1 0 0 -1 0 1374)">
		<stop  offset="0.1281" style="stop-color:#3093EF;stop-opacity:0"/>
		<stop  offset="0.524" style="stop-color:#3093EF"/>
		<stop  offset="0.9094" style="stop-color:#3093EF;stop-opacity:0"/>
	</linearGradient>
	<path class="st52" d="M841.6,1336.2v121.3"/>
	
		<linearGradient id="SVGID_49_" gradientUnits="userSpaceOnUse" x1="841.6302" y1="37.7542" x2="841.6302" y2="-83.5145" gradientTransform="matrix(1 0 0 -1 0 1374)">
		<stop  offset="0.1281" style="stop-color:#3093EF;stop-opacity:0"/>
		<stop  offset="0.524" style="stop-color:#FFFFFF"/>
		<stop  offset="0.9094" style="stop-color:#3093EF;stop-opacity:0"/>
	</linearGradient>
	<path class="st53" d="M841.6,1336.2v121.3"/>
	<g class="st32">
		
			<linearGradient id="SVGID_50_" gradientUnits="userSpaceOnUse" x1="124.7797" y1="362.6693" x2="2.8719" y2="292.5995" gradientTransform="matrix(1 0 0 -1 0 1374)">
			<stop  offset="0" style="stop-color:#3093EF;stop-opacity:0"/>
			<stop  offset="0.524" style="stop-color:#3093EF"/>
			<stop  offset="1" style="stop-color:#3093EF;stop-opacity:0"/>
		</linearGradient>
		<path class="st54" d="M122.7,1007.8L5,1084.9"/>
	</g>
	<g class="st34">
		
			<linearGradient id="SVGID_51_" gradientUnits="userSpaceOnUse" x1="124.7797" y1="362.6693" x2="2.8719" y2="292.5995" gradientTransform="matrix(1 0 0 -1 0 1374)">
			<stop  offset="0" style="stop-color:#3093EF;stop-opacity:0"/>
			<stop  offset="0.524" style="stop-color:#3093EF"/>
			<stop  offset="1" style="stop-color:#3093EF;stop-opacity:0"/>
		</linearGradient>
		<path class="st55" d="M122.7,1007.8L5,1084.9"/>
	</g>
	
		<linearGradient id="SVGID_52_" gradientUnits="userSpaceOnUse" x1="124.7291" y1="362.6401" x2="2.9226" y2="292.6287" gradientTransform="matrix(1 0 0 -1 0 1374)">
		<stop  offset="0.1281" style="stop-color:#3093EF;stop-opacity:0"/>
		<stop  offset="0.524" style="stop-color:#3093EF"/>
		<stop  offset="0.9094" style="stop-color:#3093EF;stop-opacity:0"/>
	</linearGradient>
	<path class="st56" d="M122.7,1007.8L5,1084.9"/>
	
		<linearGradient id="SVGID_53_" gradientUnits="userSpaceOnUse" x1="124.7164" y1="362.6328" x2="2.9353" y2="292.636" gradientTransform="matrix(1 0 0 -1 0 1374)">
		<stop  offset="0.1281" style="stop-color:#3093EF;stop-opacity:0"/>
		<stop  offset="0.524" style="stop-color:#FFFFFF"/>
		<stop  offset="0.9094" style="stop-color:#3093EF;stop-opacity:0"/>
	</linearGradient>
	<path class="st57" d="M122.7,1007.8L5,1084.9"/>
	<g class="st32">
		
			<linearGradient id="SVGID_54_" gradientUnits="userSpaceOnUse" x1="5.1329" y1="131.5047" x2="-116.7704" y2="61.4321" gradientTransform="matrix(1 0 0 -1 0 1374)">
			<stop  offset="0" style="stop-color:#3093EF;stop-opacity:0"/>
			<stop  offset="0.524" style="stop-color:#3093EF"/>
			<stop  offset="1" style="stop-color:#3093EF;stop-opacity:0"/>
		</linearGradient>
		<path class="st58" d="M3,1239l-117.7,77.1"/>
	</g>
	<g class="st34">
		
			<linearGradient id="SVGID_55_" gradientUnits="userSpaceOnUse" x1="5.1329" y1="131.5047" x2="-116.7704" y2="61.4321" gradientTransform="matrix(1 0 0 -1 0 1374)">
			<stop  offset="0" style="stop-color:#3093EF;stop-opacity:0"/>
			<stop  offset="0.524" style="stop-color:#3093EF"/>
			<stop  offset="1" style="stop-color:#3093EF;stop-opacity:0"/>
		</linearGradient>
		<path class="st59" d="M3,1239l-117.7,77.1"/>
	</g>
	
		<linearGradient id="SVGID_56_" gradientUnits="userSpaceOnUse" x1="5.0823" y1="131.4756" x2="-116.7198" y2="61.4612" gradientTransform="matrix(1 0 0 -1 0 1374)">
		<stop  offset="0.1281" style="stop-color:#3093EF;stop-opacity:0"/>
		<stop  offset="0.524" style="stop-color:#3093EF"/>
		<stop  offset="0.9094" style="stop-color:#3093EF;stop-opacity:0"/>
	</linearGradient>
	<path class="st60" d="M3,1239l-117.7,77.1"/>
	
		<linearGradient id="SVGID_57_" gradientUnits="userSpaceOnUse" x1="5.0696" y1="131.4684" x2="-116.7072" y2="61.4685" gradientTransform="matrix(1 0 0 -1 0 1374)">
		<stop  offset="0.1281" style="stop-color:#3093EF;stop-opacity:0"/>
		<stop  offset="0.524" style="stop-color:#FFFFFF"/>
		<stop  offset="0.9094" style="stop-color:#3093EF;stop-opacity:0"/>
	</linearGradient>
	<path class="st61" d="M3,1239l-117.7,77.1"/>
	<g class="st32">
		
			<linearGradient id="SVGID_58_" gradientUnits="userSpaceOnUse" x1="1199.3654" y1="600.7854" x2="1077.454" y2="530.7158" gradientTransform="matrix(1 0 0 -1 0 1374)">
			<stop  offset="0" style="stop-color:#3093EF;stop-opacity:0"/>
			<stop  offset="0.524" style="stop-color:#3093EF"/>
			<stop  offset="1" style="stop-color:#3093EF;stop-opacity:0"/>
		</linearGradient>
		<path class="st62" d="M1197.2,769.7l-117.7,77.1"/>
	</g>
	<g class="st34">
		
			<linearGradient id="SVGID_59_" gradientUnits="userSpaceOnUse" x1="1199.3654" y1="600.7854" x2="1077.454" y2="530.7158" gradientTransform="matrix(1 0 0 -1 0 1374)">
			<stop  offset="0" style="stop-color:#3093EF;stop-opacity:0"/>
			<stop  offset="0.524" style="stop-color:#3093EF"/>
			<stop  offset="1" style="stop-color:#3093EF;stop-opacity:0"/>
		</linearGradient>
		<path class="st63" d="M1197.2,769.7l-117.7,77.1"/>
	</g>
	
		<linearGradient id="SVGID_60_" gradientUnits="userSpaceOnUse" x1="1199.3147" y1="600.7562" x2="1077.5048" y2="530.7449" gradientTransform="matrix(1 0 0 -1 0 1374)">
		<stop  offset="0.1281" style="stop-color:#3093EF;stop-opacity:0"/>
		<stop  offset="0.524" style="stop-color:#3093EF"/>
		<stop  offset="0.9094" style="stop-color:#3093EF;stop-opacity:0"/>
	</linearGradient>
	<path class="st64" d="M1197.2,769.7l-117.7,77.1"/>
	
		<linearGradient id="SVGID_61_" gradientUnits="userSpaceOnUse" x1="1199.302" y1="600.749" x2="1077.5173" y2="530.7522" gradientTransform="matrix(1 0 0 -1 0 1374)">
		<stop  offset="0.1281" style="stop-color:#3093EF;stop-opacity:0"/>
		<stop  offset="0.524" style="stop-color:#FFFFFF"/>
		<stop  offset="0.9094" style="stop-color:#3093EF;stop-opacity:0"/>
	</linearGradient>
	<path class="st65" d="M1197.2,769.7l-117.7,77.1"/>
	<g class="st32">
		
			<linearGradient id="SVGID_62_" gradientUnits="userSpaceOnUse" x1="2036.7537" y1="366.715" x2="1924.1853" y2="301.2416" gradientTransform="matrix(1 0 0 -1 0 1374)">
			<stop  offset="0" style="stop-color:#3093EF;stop-opacity:0"/>
			<stop  offset="0.524" style="stop-color:#3093EF"/>
			<stop  offset="1" style="stop-color:#3093EF;stop-opacity:0"/>
		</linearGradient>
		<path class="st66" d="M2034.8,1004l-108.6,72"/>
	</g>
	<g class="st34">
		
			<linearGradient id="SVGID_63_" gradientUnits="userSpaceOnUse" x1="2036.7537" y1="366.715" x2="1924.1853" y2="301.2416" gradientTransform="matrix(1 0 0 -1 0 1374)">
			<stop  offset="0" style="stop-color:#3093EF;stop-opacity:0"/>
			<stop  offset="0.524" style="stop-color:#3093EF"/>
			<stop  offset="1" style="stop-color:#3093EF;stop-opacity:0"/>
		</linearGradient>
		<path class="st67" d="M2034.8,1004l-108.6,72"/>
	</g>
	
		<linearGradient id="SVGID_64_" gradientUnits="userSpaceOnUse" x1="2036.7029" y1="366.6855" x2="1924.2361" y2="301.2711" gradientTransform="matrix(1 0 0 -1 0 1374)">
		<stop  offset="0.1281" style="stop-color:#3093EF;stop-opacity:0"/>
		<stop  offset="0.524" style="stop-color:#3093EF"/>
		<stop  offset="0.9094" style="stop-color:#3093EF;stop-opacity:0"/>
	</linearGradient>
	<path class="st68" d="M2034.8,1004l-108.6,72"/>
	
		<linearGradient id="SVGID_65_" gradientUnits="userSpaceOnUse" x1="2036.6901" y1="366.6781" x2="1924.2488" y2="301.2785" gradientTransform="matrix(1 0 0 -1 0 1374)">
		<stop  offset="0.1281" style="stop-color:#3093EF;stop-opacity:0"/>
		<stop  offset="0.524" style="stop-color:#FFFFFF"/>
		<stop  offset="0.9094" style="stop-color:#3093EF;stop-opacity:0"/>
	</linearGradient>
	<path class="st69" d="M2034.8,1004l-108.6,72"/>
	
		<radialGradient id="SVGID_66_" cx="296.2507" cy="690.3834" r="1934.9775" gradientTransform="matrix(1.1268 0 0 1.2849 -114.9122 -175.8235)" gradientUnits="userSpaceOnUse">
		<stop  offset="7.157640e-02" style="stop-color:#3093EF;stop-opacity:7.000000e-02"/>
		<stop  offset="0.5031" style="stop-color:#3093EF"/>
		<stop  offset="1" style="stop-color:#3093EF;stop-opacity:0"/>
	</radialGradient>
	<path class="st70" d="M2275.7,60.4l-119.2,78.9l-0.2-0.1V139l-119-78l-0.3-157.2l-0.2-0.1l119.1-78.9l119.5,78.3L2275.7,60.4z
		 M2036.1-96.6l119.7-79.2l120.1,78.6l0.3,157.9L2156.5,140l-0.2-0.1l0.3,157.1l-0.1,0.1l119.5,78.2l0.3,157.9l-119.8,79.3l-0.2-0.1
		l0.3,154.7l119.3,78.1l0.3,157.9l-119.8,79.3l-0.2-0.1l0.3,154.7l119.3,78.1l0.3,157.9l-119.8,79.3l-119.3-78.1l-119.7,79.2
		l-120.1-78.6l-0.3-156.8l-119.3-78.1v-0.3l-118.4,78.3l-0.2-0.1l0.3,156.4l-119.8,79.3l-120.1-78.6l-119.5,79.1l-119.4-78.2
		l-119.5,79.1l-119.3-78.1l-119.7,79.2L602,1477.2l-0.3-156.8l-119.3-78.1l0-0.3L364,1320.4l-0.2-0.1l0.3,156.4l-119.8,79.3
		l-120.1-78.6L4.7,1556.4l-120.1-78.6l-0.3-156.8l-119.3-78.2l-0.3-157.9l119.8-79.3l0.2,0.1l-0.3-154.7L-235,772.9l-0.3-157.9
		l119.8-79.3l0.2,0.1l-0.3-155.8l0.1-0.1L-235,301.7l-0.3-157.9l119.8-79.3l0.2,0.1l-0.3-157.1L4.1-171.7L124.2-93l119.5-79.1
		l120.1,78.6L364.1,64l119.3,78.1l0,0.3L601.8,64l0.2,0.1l-0.3-157.1l119.8-79.3l119.3,78.1l119.7-79.2l119.4,78.2l119.5-79.1
		l120.1,78.6l119.5-79.1L1559.1-96l0.3,157.5l119.3,78.1v0.3l118.4-78.4l0.2,0.1l-0.3-157.1l119.8-79.3L2036.1-96.6z M2036.1-95.9
		L1916.8-174l-119.2,78.9l0.3,157.1l118.6,77.6l119.7-79.2l0.2,0.1L2036.1-95.9z M2036.4,61.3l-0.2-0.1L1917,140l0.2,0.1v0.1
		l0.2,0.1l119.1-78.9L2036.4,61.3L2036.4,61.3z M2037.2,61.8l-119.7,79.2l-0.2-0.1l0.3,156.4l119.2,78l119.1-78.8l0.1,0l0.1-0.1
		l-0.3-157.1L2037.2,61.8z M1916.7,297.6l-0.3-157.2l-119-78v-0.1l-0.2-0.1l-118.4,78.4l0.3,156.9l-0.1,0.1l119.5,78.2v0.3
		l118.4-78.4l0.1,0l0.1,0L1916.7,297.6z M1917.5,298.1l118.7,77.7l-0.1,0L1917.5,298.1L1917.5,298.1z M2036.7,376.2L2036.7,376.2
		h0.1l119.1-78.8l119.5,78.2l0.3,157.2l-119.2,78.9l-0.2-0.1l0-1.4l-119-78l-0.3-155.9L2036.7,376.2z M2037.2,533.6V533l118.5,77.6
		v0.6L2037.2,533.6z M2037.2,534.3l118.6,77.6l0.3,154.7l-0.2-0.1l-119.7,79.2l-118.6-77.6l-0.3-154.7l0.2,0.1L2037.2,534.3z
		 M2036.4,532.4v1.4l0.2,0.1l-119.1,78.9l-0.2-0.1v-1.4l-0.2-0.1l119.1-78.9L2036.4,532.4z M2036.1,376.5l0.3,155.2l-0.2-0.1
		l-119.7,79.2l-117.7-77.1l-0.3-156.8l118.5-78.4L2036.1,376.5z M2036.1,846.9l-118.6-77.6l-119.7,79.2l-0.2-0.1l0.3,154.7
		l118.6,77.6l119.7-79.2l0.2,0.1L2036.1,846.9z M1916.7,768.7v-0.3l-119.1,78.8v0.4l0.2,0.1l119.1-78.9L1916.7,768.7z M1916.7,767.7
		l-0.3-154.8l-119-78v-0.3L1679,613l-0.2-0.1l0.3,155.8l-0.8,0.5v0.3l118.8,77.8v-0.4L1916.7,767.7z M1916.4,612.1v-0.6l-118.2-77.4
		l-0.3,0.2v0.3L1916.4,612.1z M2156.6,768.1l-119.7,79.2l0.3,154.8l119,78l0,1.4l0.2,0.1l119.2-78.9l-0.3-157.2l-118.8-77.8V768.1z
		 M2156,767.8v-0.4l-0.2-0.1l-119.1,78.9l0.2,0.1v0.3L2156,767.8z M2036.1,1316.8l0.3,156.8l0.2,0.1l-119.1,78.8l-119.5-78.3
		l-0.3-156.1l0.2,0.1l119.7-79.2L2036.1,1316.8z M2037.2,1473.4l119.2,78.1l119.2-78.9l-0.3-157.2l-118.8-77.8v0.4l-119.7,79.2
		L2037.2,1473.4z M2156,1237.3v0.4l-119.1,78.8v-0.3l-0.2-0.1l119.1-78.9L2156,1237.3z M2156,1236.6l-0.2-0.1l-119.7,79.2
		l-118.6-77.6l-0.3-154.7l0.2,0.1l119.7-79.2l118.6,77.6L2156,1236.6z M2036.4,1003.7v-1.4l-0.2-0.1l-119.1,78.9l0.2,0.1v1.4
		l0.2,0.1l119.1-78.9L2036.4,1003.7z M2037.2,1003.5l118.5,77.6v-0.6l-118.5-77.6V1003.5z M1916.7,1238.3v0.3l0.2,0.1l-119.1,78.8
		l-0.2-0.1v-0.4L1916.7,1238.3z M1916.4,1082.8l0.3,154.9l-119.7,79.2v0.4l-118.8-77.8v-0.3l0.8-0.5l-0.3-156.9l118.4-78.4l0.2,0.1
		v1.4L1916.4,1082.8z M1916.4,1081.4v0.6l-118.5-77.6v-0.6L1916.4,1081.4z M960,141.8L841.8,64.4l-119.7,79.2l-0.2-0.1l0.3,156.4
		L841.5,378l119-78.7l-0.1-0.1L960,141.8z M841,63.9L841,63.9l-0.2-0.2l-119.1,78.9l0.2,0.1v0.1l0.2,0.1L841.3,64L841,63.9z M841,63
		l-0.3-156.4l-119.2-78.1L602.3-92.6l0.3,157.1l118.6,77.6l119.7-79.2L841,63z M961.1,142.5l-0.2-0.1l0.3,156.7l119.1,78l119.1-78.8
		l0.1,0l0.1-0.1l-0.3-157.1l-118.7-77.7L961.1,142.5z M961.1,141.8l119-78.7L1080,63v-0.1l-0.2-0.1l-119,78.7l0.1,0.1v0.1
		L961.1,141.8z M1080,62.2l-0.3-156.7l-119.2-78.1L841.4-93.7l0.2,0.1l0.3,157.2l118.4,77.5L1079.8,62L1080,62.2z M1199.9,140.7
		l-119-77.9l-0.3-157.4l-0.1-0.1l119-78.7L1319-95.2l0.3,156.8L1199.9,140.7z M721.1,142.9L602,65v-0.1l-0.2-0.1l-118.4,78.4
		l0.3,156.9l-0.1,0.1l119.5,78.2l0,0.3l118.4-78.4l0.1,0l0.1,0l-0.2-0.1L721.1,142.9z M722.2,300.6L722.2,300.6l119.4,78.3
		l0.3,157.2l119,78l0.3,155.5l118.7,77.7l119.5-79.1l0.5,0.3l-0.3-154.7L1080,535.4l-0.3-157.9l0.1-0.1L961,299.6l-119.5,79.1
		L722.2,300.6z M841,379.2l0.3,156.4l-0.5-0.3l-118.9,78.7v-0.2l-118.5-77.6l-0.3-156.8L721.6,301L841,379.2z M840.9,536.1
		l-118.9,78.7l0,0.4l0.2,0.1l119.2-78.9L840.9,536.1z M721.4,771.6l0-0.6l-118.3,78.3l0,0.6L721.4,771.6z M721.4,770.2l-0.3-154.9
		l-119-78l0-0.3l-118.4,78.4l-0.2-0.1l0.3,154.7l119.3,78.1l0,0.3L721.4,770.2z M721.1,614.6l0.3-0.2l0-0.2l-118.5-77.6l-0.3,0.2
		v0.3L721.1,614.6z M721.4,772.5v-0.2l-118.3,78.3l0.3,155.6l118.5,77.6l0,1.4l0.2,0.1l119.1-78.9l-0.2-0.1l-0.3-155.5L721.4,772.5z
		 M722,772.2L840.7,850l0-1l-118.5-77.6l0,0.4l-0.3,0.2L722,772.2z M841.9,1006l-0.3-154.9l119.7-79.2l0-1.6l118.4,77.6l0.3,157.5
		l0.1,0.1l-119,78.7L841.9,1006z M960.7,771.5l0-1.6l-0.2-0.1l-119.1,78.9l0.2,0.1l0,1.6L960.7,771.5z M960.5,769.1l0.2,0.1
		l-0.3-154.8l-118.5-77.6L722.1,616l-0.2-0.1l0.3,154.7l118.6,77.6L960.5,769.1z M840.7,1318.9l0.3,157.3l0.2,0.1l-119.1,78.8
		l-119.5-78.3l-0.3-156.1l0.2,0.1l119.8-79.3l0-0.4L840.7,1318.9z M841.9,1476l-0.3-157.3l-0.2-0.1l119.1-78.8l119.2,78.1l0.3,157.5
		l0.1,0.1l-119,78.7L841.9,1476z M1079.9,1317.2L960.5,1239l-119.7,79.2l-118.6-77.6l-0.3-154.7l0.2,0.1l119.7-79.2l119.3,78.1
		l119.5-79.1l119,77.9l0.3,154.7l-0.5-0.3L1079.9,1317.2z M1080.9,1475.1l-0.3-157.5l-0.1-0.1l119-78.7l0.5,0.3v0.7l119,77.9
		l0.3,156.5l-119.2,78.9L1080.9,1475.1z M1199.7,1083l-118.8-77.8l-0.3-157.5l-0.1-0.1l119-78.7l0.5,0.3v0.7l119,77.9l0.3,154.9
		l-119.6,79.2V1083z M1200.2,141.5l119.4-79l119.3,78.1l0.3,157.1l-0.1,0.1l-0.1,0L1320,376.6l-119.5-78.2L1200.2,141.5z
		 M1080.2,377.9l0.1-0.1l0.1,0l119.1-78.8l119.5,78.2l0.3,155.6L1199.7,612v1.1l-119.1-78L1080.2,377.9z M1200.2,613.2v-0.9
		l119.1-78.8v0.9L1200.2,613.2z M1200.2,614l119.4-79l119.3,78.1l0.3,155.8l-119.2,78.9l-0.5-0.3l0-0.7l-119-77.9L1200.2,614z
		 M1439.1,1237.6l-119.5,79.1l-119-77.9l-0.3-154.9l119.6-79.2v-1.1l119.1,78l0.3,156.1L1439.1,1237.6z M1319.3,1003.5v0.9
		l-119.1,78.8v-0.9L1319.3,1003.5z M1319.9,1002.9l119.4,78.2l119.5-79.1l120.1,78.6v0.3l118.4-78.4l0.2,0.1l-0.3-154.7l-119.3-78.2
		v-0.3l-118.4,78.4l-119.8-78.5l-119.5,79.1l-0.5-0.3L1319.9,1002.9z M1320.2,62l119.1,78l119.5-79.1l0.2,0.1l-0.3-156.7
		l-119.5-78.3L1319.9-95L1320.2,62z M1678.2,139.9v0.3l-0.8,0.5l0.3,156.8L1559.3,376l-119.5-78.2l-0.3-156.7l0.2,0.1L1559.3,62
		L1678.2,139.9z M1678,141.1l0.3,156.1l0.1,0l0.1,0l0.1-0.1l-0.3-156.2L1678,141.1z M1559.3,376.7l118.4-78.4v0.3l119.5,78.2
		l-0.1,0.1l0.3,155.8l-0.2-0.1L1678.8,611v-0.3l-119.3-78.1l-0.3-155.8L1559.3,376.7L1559.3,376.7z M1678.3,298.3l119.5,78.2
		l0.1-0.1v-0.3l-119.5-78.2l-0.1,0.1V298.3z M1797.6,377.3l0.1-0.1l0.1,0l0.1,0l0.3,156.1l-0.3-0.2L1797.6,377.3z M1797.4,533.5v0.4
		L1679,612.2l-0.2-0.1v-0.4l118.4-78.4L1797.4,533.5z M1678,611.6l0.3-0.2v-0.3l-118.8-77.8v0.6L1678,611.6z M1677.7,768.8
		l-0.3-156.9l-118.2-77.4l-119.5,79.1l-0.2-0.1l0.3,155.5l119.5,78.3L1677.7,768.8z M1678,612.3l0.3,156.2l0.3-0.2l-0.3-155.8
		L1678,612.3z M124.8,64.6l119.1,78l119.5-79.1l0.2,0.1l-0.3-156.7l-119.5-78.3L124.5-92.5L124.8,64.6z M123.6-92.7L124,64.2
		l-119.4,79L-114.8,65L-115.1-92L4.1-170.9L123.6-92.7z M-115.3,65.5L4,143.7l0.3,157.1l-0.1,0.1l-0.1,0L-115,379.6l-119.5-78.2
		l-0.3-157.2l119.2-78.9L-115.3,65.5L-115.3,65.5z M5.2,300.9L4.9,144.1l119.4-79l119.3,78.1l0.3,157.1l-0.1,0.1l-0.1,0l-119.1,78.8
		L5.2,300.9z M-115,380.3l-0.1,0.1l0.3,155.8L4.5,614.4l119.4-79l-0.3-155.6L4.2,301.6L-115,380.3L-115,380.3z M-115.5,536.5
		l0.2,0.1l0,1.4L4,616.1l0.3,154.7l-0.2-0.1L-115.6,850l0,0.4l-118.8-77.8l-0.3-157.2L-115.5,536.5z M-114.8,537.6L4,615.4l0-0.6
		L-114.8,537L-114.8,537.6z M5.2,771.4L4.9,616.5l119.4-79l119.3,78.1l0.3,154.7l-0.2-0.1l-119.5,79.1L5.2,771.4z M124,537l0-0.9
		L4.9,614.9l0,0.9L124,537z M-115.1,851.4l0.3,154.7l119.3,78.1l119.4-79l-0.3-154.9l-119-77.9l-119.5,79.1L-115.1,851.4z
		 M4.3,771.6l0,0.4l-119.2,78.9l-0.2-0.1l0-0.4L4.1,771.4L4.3,771.6z M5.2,1241.3l119,77.9l119.5-79.1l0.2,0.1l-0.3-154.7
		l-119.3-78.1l-119.4,79L5.2,1241.3z M4.1,1240.6l0.2,0.1L4,1086l-119.3-78.2l0-1.4l-0.2-0.1l-119.2,78.9l0.3,157.2l118.8,77.8
		l0-0.4L4.1,1240.6z M-115.1,1320.2l0,0.4l0.2,0.1l119.2-78.9l0-0.4l-0.2-0.1L-115.1,1320.2z M-114.9,1321.5l-0.2-0.1l0.3,156.1
		l119.5,78.3l119.2-78.9l-0.3-156.5l-119-77.9L-114.9,1321.5z M124,1006L4.9,1084.8l0,0.9l119.1-78.8L124,1006z M4,1085.3l0-0.6
		l-118.8-77.8l0,0.6L4,1085.3z M602.4,379.8L602.4,379.8l0.1,0l0.3,156.1l-0.3-0.2l-0.3-155.8L602.4,379.8z M482.9,143.5l0.3,156.2
		l-0.1,0.1l-0.1,0l-0.1,0l-0.3-156.1L482.9,143.5z M482.9,142.7l-0.8,0.5l0.3,156.8l-118.5,78.4l-119.5-78.2l-0.3-156.7l0.2,0.1
		l119.6-79.1l119,77.9V142.7z M482.4,300.9L364,379.3l-0.1,0l-0.1,0.1l0.3,155.8l119.3,78.2l0,0.3l118.4-78.4l0.2,0.1l-0.3-155.8
		l0.1-0.1l-119.5-78.2L482.4,300.9z M482.9,300.5v0.3L602.4,379l0.1-0.1v-0.3l-119.5-78.2L482.9,300.5z M602,536.4l0-0.4l-0.2-0.1
		l-118.4,78.4v0.4l0.2,0.1L602,536.4z M482.9,613.9l-0.3,0.2l-118.5-77.6l0-0.6l118.8,77.8V613.9z M482.1,614.5l0.3,155.6
		l-118.9,78.7l-119.1-78L244.2,616l0.2,0.1L363.8,537L482.1,614.5z M482.9,769.6l-0.3-154.8l0.3,0.2l0.3,154.7L482.9,769.6
		L482.9,769.6z M482.4,770.7l-118.6,78.5l0,0.4l0.2,0.1l118.4-78.4L482.4,770.7z M482.9,771l0-0.6l0.1,0l0.2,0.1v0.4L482.9,771z
		 M482.4,772.1L364,850.4l-0.2-0.1l0.3,154.7l119.3,78.2l0,0.3l118.4-78.4l0.2,0.1l-0.3-154.7l-119.3-78.2L482.4,772.1z
		 M601.7,849.8L482.9,772v-0.3l0.8-0.5l0-0.4l118.8,77.8v0.3l-0.8,0.5L601.7,849.8z M602.3,850.9l0.3,154.7l0.3,0.2l-0.3-154.8
		l-0.1,0L602.3,850.9z M602.5,850.2L602.5,850.2l-0.3-0.1v-0.4l0.3-0.2L602.5,850.2z M721.4,1085.5l0.3,154.7l-0.2-0.1l-119.8,79.3
		l0,0.4l-118.8-77.8v-0.3l0.8-0.5l-0.3-155.8l0.2,0.1l118.4-78.4l0,0.3L721.4,1085.5z M602.3,1319.7v0.4l0.2,0.1l119.2-78.9l0-0.4
		l-0.2-0.1L602.3,1319.7z M602.6,1006.7l0.3-0.2l118.5,77.6l0,0.6l-118.8-77.8V1006.7z M602,1006l0,0.4l-118.4,78.4l-0.2-0.1v-0.4
		l118.4-78.4L602,1006z M482.6,1084l0.3-0.2v-0.3l-118.8-77.8l0,0.6L482.6,1084z M482.4,1241.3l-0.3-156.9l-118.2-77.4L244.4,1086
		l-0.2-0.1l0.3,154.7l119.3,78.2l0,0.7l0.2,0.1L482.4,1241.3z M482.6,1084.7l0.3,156.2l0.3-0.2l-0.3-155.8L482.6,1084.7z
		 M1320.1,377.4L1320.1,377.4l-0.2,0l0.3,155.8l119.1,78l119.5-79.1l0.2,0.1l-0.3-155.5l-119.5-78.2L1320.1,377.4z M1438.9,612.4
		l-118.8-77.8v-0.6l118.8,77.8V612.4z M1558.9,534l-119.2,78.9l-0.2-0.1v-1l119.2-78.9l0.2,0.1V534z M124.7,379.9L124.7,379.9
		l-0.2,0l0.3,155.8l119.1,78l119.5-79.1l0.2,0.1l-0.3-155.5l-119.5-78.2L124.7,379.9z M243.6,614.9l-118.8-77.8l0-0.6l118.8,77.8
		L243.6,614.9z M363.6,536.5l-119.2,78.9l-0.2-0.1l0-1l119.2-78.9l0.2,0.1L363.6,536.5z M244.5,771.4L244.5,771.4l118.8,77.8v0
		L244.5,771.4z M124.5,849.8l0,0.4l0.2,0.1l119.2-78.9l0-0.4l-0.2-0.1L124.5,849.8z M124.7,851.1l-0.2-0.1l0.3,154.7l119.1,78
		l119.5-79.1l0.2,0.1L363.3,850l-119.1-78L124.7,851.1z M244.5,1241.4l118.8,77.8l0,0L244.5,1241.4L244.5,1241.4z M124.5,1320.1
		l0-0.4l119.2-78.9l0.2,0.1l0,0.4l-119.2,78.9L124.5,1320.1z M124.5,1320.8l0.2,0.1l119.5-79.1l119.1,78l0.3,156.4l-119.2,78.9
		l-119.5-78.3L124.5,1320.8z M124.8,1007l118.8,77.8l0-0.6l-118.8-77.8L124.8,1007z M244.4,1085.3l119.2-78.9l0-1l-0.2-0.1
		l-119.2,78.9l0,1L244.4,1085.3z M1677.7,1238.8l-118.4,78.4l-0.2-0.1l0-0.7l-119.3-78.2l-0.3-156.4l119.2-78.9l119.5,78.3v0.3
		l-0.8,0.5L1677.7,1238.8z M1678.2,1082l0.3,156.2l-0.3,0.2l-0.3-156.2L1678.2,1082z M1319.9,1317.6v-0.4l119.2-78.9l0.2,0.1v0.4
		l-119.2,78.9L1319.9,1317.6z M1558.6,1317.3l0.3,156.4l-119.2,78.9l-119.5-78.3l-0.3-156.1l0.2,0.1l119.5-79.1L1558.6,1317.3z
		 M1558.6,1316.6l-118.8-77.8l0,0L1558.6,1316.6L1558.6,1316.6z"/>
</g>
</svg>
