<?xml version="1.0" encoding="utf-8"?>
<!-- Generator: Adobe Illustrator 24.0.1, SVG Export Plug-In . SVG Version: 6.00 Build 0)  -->
<svg version="1.1" id="Слой_1" xmlns="http://www.w3.org/2000/svg" xmlns:xlink="http://www.w3.org/1999/xlink" x="0px" y="0px"
	 viewBox="0 0 99 105" style="enable-background:new 0 0 99 105;" xml:space="preserve">
<style type="text/css">
	.st0{fill-rule:evenodd;clip-rule:evenodd;fill:#087DEA;stroke:#087DEA;stroke-width:2.5;stroke-miterlimit:10;}
</style>
<path class="st0" d="M17.6,0.5h39c2.8,0,5.3,0.7,6.5,1c2.3,0.7,6.4,3,10.1,6.7C76.8,11.9,80,17,80.5,23c0.1,0.8,0.1,1.7,0.2,2.7
	c2.8,2.1,9,7.5,12.4,13.8c4.4,7.9,5.4,15.9,5.4,21.8c0,3-0.5,6.8-1.4,10.5c-0.9,3.7-2.1,7.3-3.6,9.8c-3,5-6.4,8.9-10.3,12.4
	c-4,3.5-10.8,6.9-14.8,8.4c-4,1.5-7.9,2-10.9,2h-40V87.8H0.5V17.7h17.1V0.5z M17.6,18.7H1.5v68.2h56c6.6,0,12.2-3.7,16.2-8.9
	c4-5.3,6.2-12,6.2-18c0-1,0-2.1,0-3.4c0-3.1,0-6.9,0-10.7c-2.5-4.1-6.5-7.9-11.2-10.6v20.7c0,4-1.6,8.8-4.6,12.6
	c-2.9,3.8-7.2,6.6-12.5,6.6h-38V30.9h3.9V18.7z M17.6,31.9h-2.9v42.2h2.9V31.9z M18.6,74.1h12.2V14.2h21.9c1.7,0,3.5,0.7,4.9,1.4
	c1.4,0.7,2.5,1.5,3.1,2.1c6.6,1,12.7,3.7,18.9,7.4c0-0.7-0.1-1.4-0.1-2c-0.4-5.7-3.5-10.6-7.1-14.2c-3.6-3.6-7.5-5.9-9.6-6.5
	c-1.1-0.3-3.5-1-6.2-1h-38V74.1z M79.7,26.3c-6.4-3.8-12.6-6.7-19.2-7.6H31.7v11.8h23.4c5.9,0,10.4,1.5,13.4,3.5
	c4.6,2.5,8.7,6.1,11.4,10C79.9,37.6,79.9,31.2,79.7,26.3z M81,47.6c0,3.2,0,6.3,0,8.8c0,1.3,0,2.5,0,3.4c0,6.2-2.4,13.2-6.4,18.6
	c-4.1,5.4-9.9,9.3-17,9.3H31.7v2.4h25.8c4.3,0,8.8-1.7,12.7-4.2c3.9-2.5,7.3-5.9,9.3-9.3c2-3.4,3.2-6.1,3.9-8.9
	c0.6-2.8,0.7-5.8,0.5-10C83.7,55,82.7,51.1,81,47.6z M30.7,87.8v3.4h26.8c4.5,0,9.2-1.8,13.2-4.4c4.1-2.6,7.5-6.1,9.6-9.6
	c2.1-3.5,3.3-6.2,4-9.2c0.7-2.9,0.7-6.1,0.5-10.3c-0.2-3.5-1.5-8.4-3.9-12.4c0-6.5,0-13.2-0.3-18.4c3,2.3,8.4,7.3,11.5,12.9
	c4.3,7.7,5.3,15.5,5.3,21.3c0,2.9-0.5,6.7-1.3,10.3c-0.8,3.7-2.1,7.2-3.5,9.5c-2.9,4.9-6.3,8.7-10.1,12.1
	c-3.8,3.4-10.6,6.8-14.5,8.2c-3.8,1.4-7.7,1.9-10.5,1.9h-39V87.8H30.7z M67.8,34.6c-2.8-1.8-7-3.2-12.7-3.2H31.7v42.7h20
	c4.9,0,8.9-2.6,11.7-6.2c2.8-3.6,4.3-8.2,4.3-12V34.6z M31.7,17.7H59c-0.5-0.4-1.2-0.8-1.9-1.1c-1.4-0.7-3-1.3-4.5-1.3H31.7V17.7z"
	/>
</svg>
